<mxfile host="app.diagrams.net" modified="2020-06-22T03:12:32.654Z" agent="5.0 (Windows NT 10.0; Win64; x64) AppleWebKit/537.36 (KHTML, like Gecko) Chrome/79.0.3945.130 Safari/537.36" etag="6alueZoG4hYD8wcxcDRM" version="13.3.0" type="github">
  <diagram id="nKpqzzV9hhIDLVntT4Ck" name="struct">
    <mxGraphModel dx="813" dy="435" grid="1" gridSize="10" guides="1" tooltips="1" connect="1" arrows="1" fold="1" page="1" pageScale="1" pageWidth="850" pageHeight="1100" math="0" shadow="0">
      <root>
        <mxCell id="0" />
        <mxCell id="1" parent="0" />
        <mxCell id="Nz4AmuSpDi5tKegl1DpG-29" value="" style="rounded=0;whiteSpace=wrap;html=1;fontStyle=1" vertex="1" parent="1">
          <mxGeometry x="60" y="300" width="360" height="320" as="geometry" />
        </mxCell>
        <mxCell id="Nz4AmuSpDi5tKegl1DpG-8" style="edgeStyle=orthogonalEdgeStyle;rounded=0;orthogonalLoop=1;jettySize=auto;html=1;entryX=0;entryY=0.5;entryDx=0;entryDy=0;" edge="1" parent="1" source="Nz4AmuSpDi5tKegl1DpG-6" target="Nz4AmuSpDi5tKegl1DpG-3">
          <mxGeometry relative="1" as="geometry" />
        </mxCell>
        <mxCell id="Nz4AmuSpDi5tKegl1DpG-19" style="edgeStyle=orthogonalEdgeStyle;rounded=0;orthogonalLoop=1;jettySize=auto;html=1;exitX=0.25;exitY=1;exitDx=0;exitDy=0;entryX=0.25;entryY=0;entryDx=0;entryDy=0;" edge="1" parent="1" source="Nz4AmuSpDi5tKegl1DpG-6" target="Nz4AmuSpDi5tKegl1DpG-16">
          <mxGeometry relative="1" as="geometry" />
        </mxCell>
        <mxCell id="Nz4AmuSpDi5tKegl1DpG-6" value="configuration generator" style="rounded=0;whiteSpace=wrap;html=1;fillColor=#f8cecc;strokeColor=#b85450;" vertex="1" parent="1">
          <mxGeometry x="80" y="455" width="130" height="40" as="geometry" />
        </mxCell>
        <mxCell id="Nz4AmuSpDi5tKegl1DpG-7" value="" style="group" vertex="1" connectable="0" parent="1">
          <mxGeometry x="270" y="410" width="130" height="140" as="geometry" />
        </mxCell>
        <mxCell id="Nz4AmuSpDi5tKegl1DpG-2" value="dynamic_change" style="rounded=0;whiteSpace=wrap;html=1;fillColor=#f8cecc;strokeColor=#b85450;" vertex="1" parent="Nz4AmuSpDi5tKegl1DpG-7">
          <mxGeometry width="130" height="40" as="geometry" />
        </mxCell>
        <mxCell id="Nz4AmuSpDi5tKegl1DpG-3" value="candle the data already in cache" style="rounded=0;whiteSpace=wrap;html=1;" vertex="1" parent="Nz4AmuSpDi5tKegl1DpG-7">
          <mxGeometry y="40" width="130" height="50" as="geometry" />
        </mxCell>
        <mxCell id="Nz4AmuSpDi5tKegl1DpG-4" value="change the configuration&amp;nbsp;" style="rounded=0;whiteSpace=wrap;html=1;" vertex="1" parent="Nz4AmuSpDi5tKegl1DpG-7">
          <mxGeometry y="90" width="130" height="50" as="geometry" />
        </mxCell>
        <mxCell id="Nz4AmuSpDi5tKegl1DpG-20" style="edgeStyle=orthogonalEdgeStyle;rounded=0;orthogonalLoop=1;jettySize=auto;html=1;exitX=0.75;exitY=0;exitDx=0;exitDy=0;entryX=0.75;entryY=1;entryDx=0;entryDy=0;" edge="1" parent="1" source="Nz4AmuSpDi5tKegl1DpG-16" target="Nz4AmuSpDi5tKegl1DpG-6">
          <mxGeometry relative="1" as="geometry" />
        </mxCell>
        <mxCell id="Nz4AmuSpDi5tKegl1DpG-16" value="parameter pools" style="rounded=0;whiteSpace=wrap;html=1;" vertex="1" parent="1">
          <mxGeometry x="80" y="560" width="130" height="40" as="geometry" />
        </mxCell>
        <mxCell id="Nz4AmuSpDi5tKegl1DpG-21" value="request" style="text;html=1;strokeColor=none;fillColor=none;align=center;verticalAlign=middle;whiteSpace=wrap;rounded=0;" vertex="1" parent="1">
          <mxGeometry x="70" y="520" width="40" height="20" as="geometry" />
        </mxCell>
        <mxCell id="Nz4AmuSpDi5tKegl1DpG-22" value="response" style="text;html=1;strokeColor=none;fillColor=none;align=center;verticalAlign=middle;whiteSpace=wrap;rounded=0;" vertex="1" parent="1">
          <mxGeometry x="190" y="520" width="40" height="20" as="geometry" />
        </mxCell>
        <mxCell id="Nz4AmuSpDi5tKegl1DpG-24" value="Cache Model" style="rounded=0;whiteSpace=wrap;html=1;fillColor=#f8cecc;strokeColor=#b85450;" vertex="1" parent="1">
          <mxGeometry x="270" y="310" width="130" height="60" as="geometry" />
        </mxCell>
        <mxCell id="Nz4AmuSpDi5tKegl1DpG-27" value="" style="endArrow=classic;startArrow=classic;html=1;exitX=0.5;exitY=0;exitDx=0;exitDy=0;entryX=0.5;entryY=1;entryDx=0;entryDy=0;" edge="1" parent="1" source="Nz4AmuSpDi5tKegl1DpG-2" target="Nz4AmuSpDi5tKegl1DpG-24">
          <mxGeometry width="50" height="50" relative="1" as="geometry">
            <mxPoint x="350" y="440" as="sourcePoint" />
            <mxPoint x="340" y="350" as="targetPoint" />
          </mxGeometry>
        </mxCell>
        <mxCell id="Nz4AmuSpDi5tKegl1DpG-32" style="edgeStyle=orthogonalEdgeStyle;rounded=0;orthogonalLoop=1;jettySize=auto;html=1;" edge="1" parent="1" source="Nz4AmuSpDi5tKegl1DpG-28" target="Nz4AmuSpDi5tKegl1DpG-31">
          <mxGeometry relative="1" as="geometry" />
        </mxCell>
        <mxCell id="Nz4AmuSpDi5tKegl1DpG-28" value="Attacker" style="rounded=0;whiteSpace=wrap;html=1;fillColor=#d5e8d4;strokeColor=#82b366;" vertex="1" parent="1">
          <mxGeometry x="510" y="320" width="100" height="40" as="geometry" />
        </mxCell>
        <mxCell id="Nz4AmuSpDi5tKegl1DpG-30" value="" style="endArrow=classic;startArrow=classic;html=1;entryX=0;entryY=0.5;entryDx=0;entryDy=0;exitX=1;exitY=0.5;exitDx=0;exitDy=0;" edge="1" parent="1" source="Nz4AmuSpDi5tKegl1DpG-24" target="Nz4AmuSpDi5tKegl1DpG-28">
          <mxGeometry width="50" height="50" relative="1" as="geometry">
            <mxPoint x="440" y="340" as="sourcePoint" />
            <mxPoint x="490" y="290" as="targetPoint" />
          </mxGeometry>
        </mxCell>
        <mxCell id="Nz4AmuSpDi5tKegl1DpG-31" value="eviction set" style="text;html=1;align=center;verticalAlign=middle;resizable=0;points=[];autosize=1;fillColor=#fff2cc;strokeColor=#d6b656;" vertex="1" parent="1">
          <mxGeometry x="520" y="435" width="80" height="20" as="geometry" />
        </mxCell>
        <mxCell id="Nz4AmuSpDi5tKegl1DpG-33" value="output" style="text;html=1;align=center;verticalAlign=middle;resizable=0;points=[];autosize=1;" vertex="1" parent="1">
          <mxGeometry x="560" y="380" width="50" height="20" as="geometry" />
        </mxCell>
      </root>
    </mxGraphModel>
  </diagram>
</mxfile>
